<svg width="20" height="24" viewBox="0 0 20 24" fill="none" xmlns="http://www.w3.org/2000/svg">
<path fill-rule="evenodd" clip-rule="evenodd" d="M2.18262 1.70766C2.18262 0.782266 2.91548 0 3.85976 0H10.1564C10.5462 0 10.8623 0.316036 10.8623 0.705885C10.8623 1.09573 10.5462 1.41177 10.1564 1.41177H3.85976C3.73345 1.41177 3.59438 1.52313 3.59438 1.70766C3.59438 1.89199 3.73326 2.00355 3.85976 2.00355H12.637C13.5812 2.00355 14.3141 2.78582 14.3141 3.71121V3.78521C14.3141 4.7051 13.5866 5.49287 12.637 5.49287H7.74755C7.62124 5.49287 7.48217 5.60423 7.48217 5.78876V5.94528C7.48217 6.12962 7.62105 6.24117 7.74755 6.24117H9.01129C9.40114 6.24117 9.71717 6.55721 9.71717 6.94706C9.71717 7.33691 9.40114 7.65294 9.01129 7.65294H7.74755C6.79794 7.65294 6.07041 6.86518 6.07041 5.94528V5.78876C6.07041 4.86336 6.80327 4.0811 7.74755 4.0811H12.637C12.7635 4.0811 12.9023 3.96954 12.9023 3.78521V3.71121C12.9023 3.52668 12.7633 3.41532 12.637 3.41532H3.85976C2.91015 3.41532 2.18262 2.62756 2.18262 1.70766Z" fill="#0A1F3B"/>
<path fill-rule="evenodd" clip-rule="evenodd" d="M0 8.47803H16.0855V17.8413C16.0855 21.2214 13.4224 24 10.0929 24H5.99262C2.66305 24 0 21.2214 0 17.8413V8.47803ZM1.41176 9.8898V17.8413C1.41176 20.4832 3.4836 22.5883 5.99262 22.5883H10.0929C12.6019 22.5883 14.6737 20.4832 14.6737 17.8413V9.8898H1.41176Z" fill="#0A1F3B"/>
<path fill-rule="evenodd" clip-rule="evenodd" d="M16.911 11.5633H15.3796V10.1515H16.911C18.2926 10.1515 19.3746 11.2994 19.3746 12.6702V17.1128C19.3746 18.4837 18.2926 19.6315 16.911 19.6315H15.3796V18.2198H16.911C17.472 18.2198 17.9628 17.7454 17.9628 17.1128V12.6702C17.9628 12.0376 17.472 11.5633 16.911 11.5633Z" fill="#0A1F3B"/>
</svg>
