<svg width="24" height="24" viewBox="0 0 24 24" fill="none" xmlns="http://www.w3.org/2000/svg">
<mask id="path-1-inside-1_1648_535" fill="white">
<path fill-rule="evenodd" clip-rule="evenodd" d="M6.51429 0C6.78708 0 7.0487 0.108367 7.2416 0.301261C7.43449 0.494156 7.54286 0.755777 7.54286 1.02857V2.74286H10.9714V1.02857C10.9714 0.755777 11.0798 0.494156 11.2727 0.301261C11.4656 0.108367 11.7272 0 12 0C12.2728 0 12.5344 0.108367 12.7273 0.301261C12.9202 0.494156 13.0286 0.755777 13.0286 1.02857V2.74286H16.4571V1.02857C16.4571 0.755777 16.5655 0.494156 16.7584 0.301261C16.9513 0.108367 17.2129 0 17.4857 0C17.7585 0 18.0201 0.108367 18.213 0.301261C18.4059 0.494156 18.5143 0.755777 18.5143 1.02857V2.74286H18.8571C20.1819 2.74286 21.2571 3.81806 21.2571 5.14286V5.48571H22.9714C23.2442 5.48571 23.5058 5.59408 23.6987 5.78698C23.8916 5.97987 24 6.24149 24 6.51429C24 6.78708 23.8916 7.0487 23.6987 7.2416C23.5058 7.43449 23.2442 7.54286 22.9714 7.54286H21.2571V10.9714H22.9714C23.2442 10.9714 23.5058 11.0798 23.6987 11.2727C23.8916 11.4656 24 11.7272 24 12C24 12.2728 23.8916 12.5344 23.6987 12.7273C23.5058 12.9202 23.2442 13.0286 22.9714 13.0286H21.2571V16.4571H22.9714C23.2442 16.4571 23.5058 16.5655 23.6987 16.7584C23.8916 16.9513 24 17.2129 24 17.4857C24 17.7585 23.8916 18.0201 23.6987 18.213C23.5058 18.4059 23.2442 18.5143 22.9714 18.5143H21.2571V18.8571C21.2571 19.4937 21.0043 20.1041 20.5542 20.5542C20.1041 21.0043 19.4937 21.2571 18.8571 21.2571H18.5143V22.9714C18.5143 23.2442 18.4059 23.5058 18.213 23.6987C18.0201 23.8916 17.7585 24 17.4857 24C17.2129 24 16.9513 23.8916 16.7584 23.6987C16.5655 23.5058 16.4571 23.2442 16.4571 22.9714V21.2571H13.0286V22.9714C13.0286 23.2442 12.9202 23.5058 12.7273 23.6987C12.5344 23.8916 12.2728 24 12 24C11.7272 24 11.4656 23.8916 11.2727 23.6987C11.0798 23.5058 10.9714 23.2442 10.9714 22.9714V21.2571H7.54286V22.9714C7.54286 23.2442 7.43449 23.5058 7.2416 23.6987C7.0487 23.8916 6.78708 24 6.51429 24C6.24149 24 5.97987 23.8916 5.78698 23.6987C5.59408 23.5058 5.48571 23.2442 5.48571 22.9714V21.2571H5.14286C4.50634 21.2571 3.89589 21.0043 3.4458 20.5542C2.99571 20.1041 2.74286 19.4937 2.74286 18.8571V18.5143H1.02857C0.755777 18.5143 0.494156 18.4059 0.301261 18.213C0.108367 18.0201 0 17.7585 0 17.4857C0 17.2129 0.108367 16.9513 0.301261 16.7584C0.494156 16.5655 0.755777 16.4571 1.02857 16.4571H2.74286V13.0286H1.02857C0.755777 13.0286 0.494156 12.9202 0.301261 12.7273C0.108367 12.5344 0 12.2728 0 12C0 11.7272 0.108367 11.4656 0.301261 11.2727C0.494156 11.0798 0.755777 10.9714 1.02857 10.9714H2.74286V7.54286H1.02857C0.755777 7.54286 0.494156 7.43449 0.301261 7.2416C0.108367 7.0487 0 6.78708 0 6.51429C0 6.24149 0.108367 5.97987 0.301261 5.78698C0.494156 5.59408 0.755777 5.48571 1.02857 5.48571H2.74286V5.14286C2.74286 3.81806 3.81669 2.74286 5.14286 2.74286H5.48571V1.02857C5.48571 0.755777 5.59408 0.494156 5.78698 0.301261C5.97987 0.108367 6.24149 0 6.51429 0ZM5.14286 4.8C5.05193 4.8 4.96472 4.83612 4.90042 4.90042C4.83612 4.96472 4.8 5.05193 4.8 5.14286V18.8571C4.8 19.0464 4.9536 19.2 5.14286 19.2H18.8571C18.9481 19.2 19.0353 19.1639 19.0996 19.0996C19.1639 19.0353 19.2 18.9481 19.2 18.8571V5.14286C19.2 5.05193 19.1639 4.96472 19.0996 4.90042C19.0353 4.83612 18.9481 4.8 18.8571 4.8H5.14286Z"/>
</mask>
<path fill-rule="evenodd" clip-rule="evenodd" d="M6.51429 0C6.78708 0 7.0487 0.108367 7.2416 0.301261C7.43449 0.494156 7.54286 0.755777 7.54286 1.02857V2.74286H10.9714V1.02857C10.9714 0.755777 11.0798 0.494156 11.2727 0.301261C11.4656 0.108367 11.7272 0 12 0C12.2728 0 12.5344 0.108367 12.7273 0.301261C12.9202 0.494156 13.0286 0.755777 13.0286 1.02857V2.74286H16.4571V1.02857C16.4571 0.755777 16.5655 0.494156 16.7584 0.301261C16.9513 0.108367 17.2129 0 17.4857 0C17.7585 0 18.0201 0.108367 18.213 0.301261C18.4059 0.494156 18.5143 0.755777 18.5143 1.02857V2.74286H18.8571C20.1819 2.74286 21.2571 3.81806 21.2571 5.14286V5.48571H22.9714C23.2442 5.48571 23.5058 5.59408 23.6987 5.78698C23.8916 5.97987 24 6.24149 24 6.51429C24 6.78708 23.8916 7.0487 23.6987 7.2416C23.5058 7.43449 23.2442 7.54286 22.9714 7.54286H21.2571V10.9714H22.9714C23.2442 10.9714 23.5058 11.0798 23.6987 11.2727C23.8916 11.4656 24 11.7272 24 12C24 12.2728 23.8916 12.5344 23.6987 12.7273C23.5058 12.9202 23.2442 13.0286 22.9714 13.0286H21.2571V16.4571H22.9714C23.2442 16.4571 23.5058 16.5655 23.6987 16.7584C23.8916 16.9513 24 17.2129 24 17.4857C24 17.7585 23.8916 18.0201 23.6987 18.213C23.5058 18.4059 23.2442 18.5143 22.9714 18.5143H21.2571V18.8571C21.2571 19.4937 21.0043 20.1041 20.5542 20.5542C20.1041 21.0043 19.4937 21.2571 18.8571 21.2571H18.5143V22.9714C18.5143 23.2442 18.4059 23.5058 18.213 23.6987C18.0201 23.8916 17.7585 24 17.4857 24C17.2129 24 16.9513 23.8916 16.7584 23.6987C16.5655 23.5058 16.4571 23.2442 16.4571 22.9714V21.2571H13.0286V22.9714C13.0286 23.2442 12.9202 23.5058 12.7273 23.6987C12.5344 23.8916 12.2728 24 12 24C11.7272 24 11.4656 23.8916 11.2727 23.6987C11.0798 23.5058 10.9714 23.2442 10.9714 22.9714V21.2571H7.54286V22.9714C7.54286 23.2442 7.43449 23.5058 7.2416 23.6987C7.0487 23.8916 6.78708 24 6.51429 24C6.24149 24 5.97987 23.8916 5.78698 23.6987C5.59408 23.5058 5.48571 23.2442 5.48571 22.9714V21.2571H5.14286C4.50634 21.2571 3.89589 21.0043 3.4458 20.5542C2.99571 20.1041 2.74286 19.4937 2.74286 18.8571V18.5143H1.02857C0.755777 18.5143 0.494156 18.4059 0.301261 18.213C0.108367 18.0201 0 17.7585 0 17.4857C0 17.2129 0.108367 16.9513 0.301261 16.7584C0.494156 16.5655 0.755777 16.4571 1.02857 16.4571H2.74286V13.0286H1.02857C0.755777 13.0286 0.494156 12.9202 0.301261 12.7273C0.108367 12.5344 0 12.2728 0 12C0 11.7272 0.108367 11.4656 0.301261 11.2727C0.494156 11.0798 0.755777 10.9714 1.02857 10.9714H2.74286V7.54286H1.02857C0.755777 7.54286 0.494156 7.43449 0.301261 7.2416C0.108367 7.0487 0 6.78708 0 6.51429C0 6.24149 0.108367 5.97987 0.301261 5.78698C0.494156 5.59408 0.755777 5.48571 1.02857 5.48571H2.74286V5.14286C2.74286 3.81806 3.81669 2.74286 5.14286 2.74286H5.48571V1.02857C5.48571 0.755777 5.59408 0.494156 5.78698 0.301261C5.97987 0.108367 6.24149 0 6.51429 0ZM5.14286 4.8C5.05193 4.8 4.96472 4.83612 4.90042 4.90042C4.83612 4.96472 4.8 5.05193 4.8 5.14286V18.8571C4.8 19.0464 4.9536 19.2 5.14286 19.2H18.8571C18.9481 19.2 19.0353 19.1639 19.0996 19.0996C19.1639 19.0353 19.2 18.9481 19.2 18.8571V5.14286C19.2 5.05193 19.1639 4.96472 19.0996 4.90042C19.0353 4.83612 18.9481 4.8 18.8571 4.8H5.14286Z" fill="#0D1E3A" stroke="white" stroke-width="0.6" mask="url(#path-1-inside-1_1648_535)"/>
</svg>
