<svg width="15" height="24" viewBox="0 0 15 24" fill="none" xmlns="http://www.w3.org/2000/svg">
<path d="M1.57887 2.81131L1.57764 3.08447L12.4994 3.1234L12.5007 2.85024L1.57887 2.81131Z" fill="#0D1E3A"/>
<path fill-rule="evenodd" clip-rule="evenodd" d="M0.974854 3.69519L0.981629 2.19651L13.1034 2.23971L13.0967 3.7384L0.974854 3.69519ZM1.57762 3.08457L1.57886 2.8114L12.5007 2.85033L12.4994 3.1235L1.57762 3.08457Z" fill="#0D1E3A"/>
<path d="M2.298 14.3659L2.29688 14.639L11.9218 14.6704L11.9229 14.3972L2.298 14.3659Z" fill="#0D1E3A"/>
<path fill-rule="evenodd" clip-rule="evenodd" d="M1.69434 15.25L1.70052 13.7513L12.5254 13.7865L12.5192 15.2852L1.69434 15.25ZM2.29686 14.6392L2.29799 14.366L11.9229 14.3974L11.9218 14.6705L2.29686 14.6392Z" fill="#0D1E3A"/>
<path d="M1.73531 9.96084L1.73413 10.234L12.5778 10.271L12.579 9.99781L1.73531 9.96084Z" fill="#0D1E3A"/>
<path fill-rule="evenodd" clip-rule="evenodd" d="M1.13135 10.8446L1.13783 9.34592L13.1815 9.38698L13.175 10.8857L1.13135 10.8446ZM1.73399 10.2339L1.73518 9.96072L12.5788 9.9977L12.5776 10.2709L1.73399 10.2339Z" fill="#0D1E3A"/>
<path d="M1.51637 21.8937L1.51514 22.1669L12.7353 22.2069L12.7365 21.9337L1.51637 21.8937Z" fill="#0D1E3A"/>
<path fill-rule="evenodd" clip-rule="evenodd" d="M0.912354 22.7775L0.919129 21.2788L13.3393 21.3231L13.3325 22.8217L0.912354 22.7775ZM1.51512 22.1668L1.51636 21.8937L12.7365 21.9337L12.7353 22.2068L1.51512 22.1668Z" fill="#0D1E3A"/>
<path fill-rule="evenodd" clip-rule="evenodd" d="M13.4286 9.15946e-06C13.8428 0.00205607 14.1769 0.346642 14.1749 0.769663C14.1656 2.73473 13.2989 4.09848 12.0455 5.09108C10.8363 6.04865 9.24785 6.67633 7.75053 7.23693C7.59868 7.29379 7.4477 7.34998 7.29781 7.40576C5.92172 7.91793 4.63683 8.39616 3.59835 9.04309C2.47376 9.74367 1.74453 10.5784 1.53349 11.7638C1.35674 12.7633 1.90087 13.9753 3.77318 15.3769C3.90067 15.4719 4.19565 15.6378 4.72269 15.8988C5.23167 16.1508 5.90279 16.4657 6.74137 16.8579C6.7413 16.8579 6.74143 16.858 6.74137 16.8579L6.80531 16.8877C7.9254 17.41 9.10306 17.9591 9.94522 18.4089C10.7949 18.8607 11.768 19.4747 12.5517 20.2423C13.3292 21.0038 13.9972 21.9935 14.0617 23.192C14.0844 23.6144 13.7675 23.9756 13.3539 23.9988C12.9403 24.022 12.5866 23.6984 12.5639 23.276C12.529 22.6278 12.1587 21.9799 11.5134 21.3479C10.8743 20.722 10.0401 20.1864 9.25227 19.7675L9.25104 19.7669C8.44497 19.3363 7.29635 18.8007 6.15315 18.2677L6.11774 18.2512C5.2836 17.861 4.5952 17.5381 4.06832 17.2772C3.55996 17.0255 3.14197 16.8031 2.88791 16.6135L2.88701 16.6129C0.882369 15.1124 -0.278329 13.3881 0.0574696 11.491C0.372065 9.72295 1.48038 8.56808 2.81723 7.73528C3.9921 7.00338 5.42523 6.47103 6.77315 5.97034C6.92814 5.91277 7.08201 5.85562 7.23422 5.79863C8.75887 5.22779 10.1287 4.6705 11.1263 3.88048C12.0797 3.12549 12.6682 2.17906 12.675 0.762251C12.677 0.339229 13.0144 -0.00203769 13.4286 9.15946e-06Z" fill="#071E3C"/>
<path fill-rule="evenodd" clip-rule="evenodd" d="M0.746615 9.15946e-06C1.16082 -0.00203769 1.49823 0.339229 1.50024 0.762251C1.50695 2.17906 2.09551 3.12549 3.04888 3.88048C4.04649 4.6705 5.41632 5.22779 6.94096 5.79863C7.09318 5.85562 7.24705 5.91277 7.40204 5.97034C8.74996 6.47103 10.1831 7.00338 11.358 7.73528C12.6948 8.56808 13.803 9.72226 14.1176 11.4903C14.4534 13.3874 13.2928 15.1124 11.2882 16.6129L11.2873 16.6135C11.0332 16.8031 10.6152 17.0255 10.1069 17.2772C9.57999 17.5381 8.89242 17.8606 8.05827 18.2508L8.02205 18.2677C6.87885 18.8007 5.73022 19.3363 4.92415 19.7669L4.92292 19.7675C4.13505 20.1864 3.30087 20.722 2.66178 21.3479C2.01646 21.9799 1.64615 22.6278 1.61128 23.276C1.58855 23.6984 1.23485 24.022 0.821264 23.9988C0.407674 23.9756 0.0908135 23.6144 0.113536 23.192C0.17801 21.9935 0.845999 21.0038 1.62353 20.2423C2.4073 19.4746 3.38052 18.8605 4.23022 18.4087C5.07237 17.959 6.24991 17.41 7.36989 16.8877L7.43362 16.858C8.27229 16.4657 8.94348 16.1508 9.4525 15.8988C9.97962 15.6378 10.2746 15.4718 10.4021 15.3768C12.2744 13.9752 12.8185 12.7632 12.6417 11.7637C12.4306 10.5784 11.7014 9.74365 10.5768 9.04309C9.53836 8.39616 8.25346 7.91793 6.87737 7.40576C6.72748 7.34998 6.57651 7.29379 6.42466 7.23693C4.92734 6.67633 3.3389 6.04865 2.12972 5.09108C0.876299 4.09848 0.00956347 2.73473 0.000253109 0.769663C-0.0017511 0.346642 0.332407 0.00205607 0.746615 9.15946e-06Z" fill="#071E3C"/>
</svg>
