<svg width="24" height="24" viewBox="0 0 24 24" fill="none" xmlns="http://www.w3.org/2000/svg">
<g clip-path="url(#clip0_1641_628)">
<path d="M18 7.5C18.8284 7.5 19.5 6.82842 19.5 6C19.5 5.17158 18.8284 4.5 18 4.5C17.1716 4.5 16.5 5.17158 16.5 6C16.5 6.82842 17.1716 7.5 18 7.5Z" fill="#071E3C"/>
<path fill-rule="evenodd" clip-rule="evenodd" d="M20.9998 0H14.1211C13.3254 0 12.5624 0.316071 11.9998 0.878679L1.49977 11.3787C0.328199 12.5503 0.328202 14.4498 1.49977 15.6213L8.37846 22.5C9.55003 23.6715 11.4495 23.6715 12.6211 22.5L23.1211 12C23.6838 11.4374 23.9998 10.6743 23.9998 9.87868V3C23.9998 1.34314 22.6566 0 20.9998 0ZM14.1211 1.5H20.9998C21.8283 1.5 22.4998 2.17158 22.4998 3V9.87868C22.4998 10.2765 22.3417 10.658 22.0605 10.9393L11.5604 21.4394C10.9746 22.0251 10.0249 22.0251 9.43911 21.4394L2.56044 14.5607C1.97464 13.9749 1.97464 13.0251 2.56044 12.4393L13.0604 1.93933C13.3417 1.65804 13.7233 1.5 14.1211 1.5Z" fill="#071E3C"/>
</g>
<defs>
<clipPath id="clip0_1641_628">
<rect width="24" height="24" fill="white"/>
</clipPath>
</defs>
</svg>
