<svg width="24" height="24" viewBox="0 0 24 24" fill="none" xmlns="http://www.w3.org/2000/svg">
<path fill-rule="evenodd" clip-rule="evenodd" d="M16.0223 14.9531C19.1674 11.2342 18.8206 5.69655 15.2362 2.399C11.6518 -0.898545 6.1049 -0.782894 2.66103 2.66119C-0.782845 6.10528 -0.898489 11.6525 2.39885 15.2372C5.6962 18.8218 11.2335 19.1686 14.9522 16.0233L22.9299 24L24 22.9298L16.0223 14.9531ZM9.09517 16.6558C6.03612 16.6564 3.27797 14.8139 2.10705 11.9877C0.93612 9.16143 1.58305 5.90806 3.74612 3.74486C5.90919 1.58165 9.16235 0.93468 11.9884 2.10568C14.8145 3.27668 16.6568 6.035 16.6562 9.09423C16.6505 13.268 13.2686 16.65 9.09517 16.6558Z" fill="#0D1E3A"/>
</svg>
