<svg width="20" height="24" viewBox="0 0 20 24" fill="none" xmlns="http://www.w3.org/2000/svg">
<path fill-rule="evenodd" clip-rule="evenodd" d="M9.01524 1.50451L2.05225 13.692H7.59474C7.86245 13.69 8.11092 13.8309 8.24669 14.0616C8.38247 14.2923 8.38496 14.5779 8.25324 14.811L5.98074 18.9105L13.6052 11.286H9.55524C9.25653 11.2887 8.98468 11.1139 8.8632 10.841C8.74172 10.5681 8.79379 10.2491 8.99574 10.029L16.6652 1.50451H9.01524ZM8.57699 0.00450011H18.3585C18.6575 0.00116456 18.9299 0.175741 19.0517 0.448788C19.1736 0.721835 19.1216 1.04118 18.9195 1.2615L11.2485 9.7785H15.423C15.7293 9.77484 16.007 9.95784 16.1245 10.2407C16.2421 10.5236 16.1757 10.8495 15.957 11.064L3.24449 23.7795C3.10344 23.921 2.91177 24.0003 2.71199 24C2.44455 24.0014 2.19657 23.8604 2.06117 23.6297C1.92576 23.3991 1.9234 23.1138 2.05499 22.881L6.32249 15.1965H0.754488C0.485739 15.1981 0.236673 15.0558 0.101602 14.8234C-0.0334683 14.5911 -0.0338931 14.3042 0.100489 14.0715L7.92449 0.3795C8.05784 0.144791 8.30704 -0.000145127 8.57699 1.09049e-07V0.00450011Z" fill="#071E3C"/>
</svg>
