<svg width="13" height="24" viewBox="0 0 13 24" fill="none" xmlns="http://www.w3.org/2000/svg">
<path d="M6.59104 24C6.33819 24 6.12748 23.9157 5.95891 23.7471C5.8072 23.5785 5.73134 23.3762 5.73134 23.1401V20.6112L6.18648 21.0411C5.0065 21.0242 3.92766 20.8641 2.94996 20.5606C1.97226 20.2403 1.14627 19.8356 0.471993 19.3467C0.286567 19.2118 0.151712 19.0516 0.0674276 18.8662C-2.35488e-08 18.6639 -0.0168569 18.47 0.0168569 18.2845C0.0674276 18.0991 0.151712 17.9389 0.26971 17.804C0.404565 17.6691 0.564706 17.5933 0.750132 17.5764C0.935558 17.5427 1.14627 17.6017 1.38227 17.7534C1.93854 18.1412 2.61282 18.4784 3.40509 18.765C4.19737 19.0516 5.18349 19.1949 6.36348 19.1949C7.34118 19.1949 8.14188 19.0685 8.76558 18.8156C9.38929 18.5627 9.85285 18.2086 10.1563 17.7534C10.4597 17.2982 10.6114 16.7671 10.6114 16.1602C10.6114 15.6881 10.5018 15.275 10.2827 14.921C10.0636 14.5669 9.718 14.2634 9.24601 14.0105C8.77401 13.7576 8.14188 13.5469 7.3496 13.3783L4.82107 12.8472C3.28709 12.51 2.14925 11.9621 1.40755 11.2034C0.665847 10.4278 0.294996 9.41623 0.294996 8.1686C0.294996 7.19073 0.530992 6.32244 1.00299 5.56375C1.49184 4.7882 2.16611 4.18124 3.02581 3.74289C3.88551 3.28767 4.8885 3.03477 6.03477 2.98419L5.73134 3.33825V0.859852C5.73134 0.623814 5.8072 0.421496 5.95891 0.252898C6.12748 0.0842992 6.33819 0 6.59104 0C6.82704 0 7.02932 0.0842992 7.19789 0.252898C7.36646 0.421496 7.45075 0.623814 7.45075 0.859852V3.33825L7.12204 2.98419C7.91431 3.00105 8.74873 3.16965 9.62529 3.48999C10.5187 3.81033 11.2773 4.26554 11.901 4.85564C12.0695 5.00738 12.1707 5.17597 12.2044 5.36143C12.255 5.53003 12.2465 5.69863 12.1791 5.86723C12.1285 6.01897 12.0358 6.15385 11.901 6.27186C11.783 6.37302 11.6228 6.43203 11.4205 6.44889C11.2351 6.44889 11.0328 6.37302 10.8137 6.22129C10.2574 5.76607 9.63371 5.42044 8.94258 5.1844C8.26831 4.93151 7.45075 4.80506 6.4899 4.80506C5.22564 4.80506 4.21422 5.10854 3.45566 5.71549C2.71396 6.32244 2.34311 7.12329 2.34311 8.11802C2.34311 8.89357 2.5791 9.51739 3.0511 9.98946C3.52309 10.4447 4.29008 10.7819 5.35206 11.0011L7.90588 11.5574C9.55786 11.9115 10.7716 12.451 11.547 13.176C12.3224 13.8841 12.7101 14.8451 12.7101 16.059C12.7101 17.02 12.4657 17.863 11.9768 18.588C11.488 19.2961 10.8221 19.8609 9.97928 20.2824C9.13644 20.687 8.15874 20.9315 7.04618 21.0158L7.45075 20.5859V23.1401C7.45075 23.3762 7.36646 23.5785 7.19789 23.7471C7.04618 23.9157 6.8439 24 6.59104 24Z" fill="#0D1E3A"/>
</svg>
