<svg width="24" height="24" viewBox="0 0 24 24" fill="none" xmlns="http://www.w3.org/2000/svg">
<path fill-rule="evenodd" clip-rule="evenodd" d="M16.75 0C18.2688 0 19.5 1.23122 19.5 2.75V21.25C19.5 22.7688 18.2688 24 16.75 24H7.25C5.73122 24 4.5 22.7688 4.5 21.25V2.75C4.5 1.23122 5.73122 0 7.25 0H16.75ZM18 20.5H6V21.25C6 21.8972 6.49187 22.4295 7.12219 22.4935L7.25 22.5H16.75C17.4404 22.5 18 21.9404 18 21.25V20.5ZM18 5.5H6V19H18V5.5ZM16.75 1.5H7.25C6.55964 1.5 6 2.05964 6 2.75V4H18V2.75C18 2.10279 17.5081 1.57047 16.8778 1.50645L16.75 1.5Z" fill="#071E3C"/>
</svg>
