<svg width="24" height="19" viewBox="0 0 24 19" fill="none" xmlns="http://www.w3.org/2000/svg">
<path d="M23.2 7.22408H22.12L19.342 0.953177C19.2163 0.669459 19.0113 0.428407 18.7518 0.259229C18.4923 0.0900498 18.1895 3.71659e-06 17.88 0H6.12C5.81054 3.71659e-06 5.50772 0.0900498 5.24823 0.259229C4.98874 0.428407 4.78372 0.669459 4.658 0.953177L1.88 7.22408H0.8C0.587827 7.22408 0.384344 7.30865 0.234315 7.45918C0.0842854 7.60971 0 7.81387 0 8.02676C0 8.23964 0.0842854 8.4438 0.234315 8.59433C0.384344 8.74486 0.587827 8.82943 0.8 8.82943H1.6V16.8562C1.6 17.282 1.76857 17.6903 2.06863 17.9913C2.36869 18.2924 2.77565 18.4615 3.2 18.4615H5.6C6.02435 18.4615 6.43131 18.2924 6.73137 17.9913C7.03143 17.6903 7.2 17.282 7.2 16.8562V15.2508H16.8V16.8562C16.8 17.282 16.9686 17.6903 17.2686 17.9913C17.5687 18.2924 17.9757 18.4615 18.4 18.4615H20.8C21.2243 18.4615 21.6313 18.2924 21.9314 17.9913C22.2314 17.6903 22.4 17.282 22.4 16.8562V8.82943H23.2C23.4122 8.82943 23.6157 8.74486 23.7657 8.59433C23.9157 8.4438 24 8.23964 24 8.02676C24 7.81387 23.9157 7.60971 23.7657 7.45918C23.6157 7.30865 23.4122 7.22408 23.2 7.22408ZM6.12 1.60535H17.88L20.369 7.22408H3.631L6.12 1.60535ZM5.6 16.8562H3.2V15.2508H5.6V16.8562ZM18.4 16.8562V15.2508H20.8V16.8562H18.4ZM20.8 13.6455H3.2V8.82943H20.8V13.6455ZM4.8 11.2375C4.8 11.0246 4.88429 10.8204 5.03431 10.6699C5.18434 10.5194 5.38783 10.4348 5.6 10.4348H7.2C7.41217 10.4348 7.61566 10.5194 7.76569 10.6699C7.91571 10.8204 8 11.0246 8 11.2375C8 11.4503 7.91571 11.6545 7.76569 11.805C7.61566 11.9556 7.41217 12.0401 7.2 12.0401H5.6C5.38783 12.0401 5.18434 11.9556 5.03431 11.805C4.88429 11.6545 4.8 11.4503 4.8 11.2375ZM16 11.2375C16 11.0246 16.0843 10.8204 16.2343 10.6699C16.3843 10.5194 16.5878 10.4348 16.8 10.4348H18.4C18.6122 10.4348 18.8157 10.5194 18.9657 10.6699C19.1157 10.8204 19.2 11.0246 19.2 11.2375C19.2 11.4503 19.1157 11.6545 18.9657 11.805C18.8157 11.9556 18.6122 12.0401 18.4 12.0401H16.8C16.5878 12.0401 16.3843 11.9556 16.2343 11.805C16.0843 11.6545 16 11.4503 16 11.2375Z" fill="#071E3C"/>
</svg>
