<svg width="24" height="24" viewBox="0 0 24 24" fill="none" xmlns="http://www.w3.org/2000/svg">
<path fill-rule="evenodd" clip-rule="evenodd" d="M19.5002 2.25552C19.5002 1.76692 19.0405 1.40878 18.5667 1.52831L0.933657 5.97719C0.532029 6.07853 0.1243 5.83509 0.0229677 5.43346C-0.0783645 5.03183 0.165073 4.6241 0.5667 4.52277L18.1997 0.0738866C19.621 -0.284702 21.0002 0.789719 21.0002 2.25552V2.99998C21.0002 3.4142 20.6644 3.74998 20.2502 3.74998C19.836 3.74998 19.5002 3.4142 19.5002 2.99998V2.25552ZM21.0002 7.66928C21.0002 7.22345 20.6136 6.87605 20.1703 6.92355L0.830083 8.99572C0.418227 9.03984 0.0485791 8.74174 0.0044516 8.32988C-0.0396759 7.91803 0.258427 7.54838 0.670284 7.50425L20.0105 5.43209C21.3404 5.2896 22.5002 6.33178 22.5002 7.66928L22.5002 8.24998C22.5002 8.6642 22.1644 8.99998 21.7502 8.99998C21.336 8.99998 21.0002 8.6642 21.0002 8.24999L21.0002 7.66928ZM0.000178613 12.75C0.000178613 11.5073 1.00754 10.5 2.25018 10.5H21.7502C22.9928 10.5 24.0002 11.5073 24.0002 12.75V21.75C24.0002 22.9926 22.9928 24 21.7502 24H2.25018C1.00754 24 0.000178613 22.9926 0.000178613 21.75V12.75ZM2.25018 12C1.83597 12 1.50018 12.3358 1.50018 12.75V14.25C2.74282 14.25 3.75018 13.2426 3.75018 12H2.25018ZM5.25018 12C5.25018 14.0711 3.57125 15.75 1.50018 15.75V18.75C3.57125 18.75 5.25018 20.4289 5.25018 22.5H18.7502C18.7502 20.4289 20.4291 18.75 22.5002 18.75V15.75C20.4291 15.75 18.7502 14.0711 18.7502 12H5.25018ZM20.2502 12C20.2502 13.2426 21.2575 14.25 22.5002 14.25V12.75C22.5002 12.3358 22.1644 12 21.7502 12H20.2502ZM22.5002 20.25C21.2575 20.25 20.2502 21.2573 20.2502 22.5H21.7502C22.1644 22.5 22.5002 22.1642 22.5002 21.75V20.25ZM3.75018 22.5C3.75018 21.2573 2.74282 20.25 1.50018 20.25V21.75C1.50018 22.1642 1.83597 22.5 2.25018 22.5H3.75018ZM12.0002 15C10.7575 15 9.75018 16.0073 9.75018 17.25C9.75018 18.4926 10.7575 19.5 12.0002 19.5C13.2428 19.5 14.2502 18.4926 14.2502 17.25C14.2502 16.0073 13.2428 15 12.0002 15ZM8.25018 17.25C8.25018 15.1789 9.92911 13.5 12.0002 13.5C14.0712 13.5 15.7502 15.1789 15.7502 17.25C15.7502 19.3211 14.0712 21 12.0002 21C9.92911 21 8.25018 19.3211 8.25018 17.25Z" fill="#0D1E3A"/>
</svg>
