<svg width="18" height="24" viewBox="0 0 18 24" fill="none" xmlns="http://www.w3.org/2000/svg">
<path d="M9 0.00176418C6.6856 -0.0645486 4.43919 0.788725 2.75245 2.37483C1.06571 3.96093 0.0760168 6.15067 0 8.46476C0.0473313 10.6899 0.947265 12.812 2.514 14.3928C3.7089 15.5347 4.41981 17.0919 4.5 18.7428V20.2518C4.50296 20.3598 4.5287 20.466 4.57554 20.5635C4.62238 20.6609 4.68926 20.7474 4.77181 20.8172C4.85436 20.887 4.95071 20.9386 5.05457 20.9686C5.15842 20.9986 5.26745 21.0063 5.3745 20.9913H6V21.0018C6 21.7974 6.31607 22.5605 6.87868 23.1231C7.44129 23.6857 8.20435 24.0018 9 24.0018C9.79565 24.0018 10.5587 23.6857 11.1213 23.1231C11.6839 22.5605 12 21.7974 12 21.0018V20.9913H12.627C12.6676 20.9985 12.7088 21.002 12.75 21.0018C12.9489 21.0018 13.1397 20.9227 13.2803 20.7821C13.421 20.6414 13.5 20.4507 13.5 20.2518V18.7428C13.5802 17.0919 14.2911 15.5347 15.486 14.3928C17.0527 12.812 17.9527 10.6899 18 8.46476C17.924 6.15067 16.9343 3.96093 15.2476 2.37483C13.5608 0.788725 11.3144 -0.0645486 9 0.00176418ZM10.5 21.0018C10.5 21.3996 10.342 21.7811 10.0607 22.0624C9.77936 22.3437 9.39782 22.5018 9 22.5018C8.60218 22.5018 8.22064 22.3437 7.93934 22.0624C7.65804 21.7811 7.5 21.3996 7.5 21.0018V20.9913H10.5V21.0018ZM12 19.4913H6V18.7413C5.9983 18.4941 5.98328 18.2473 5.955 18.0018H12.045C12.0167 18.2478 12.0016 18.4951 12 18.7428V19.4913ZM14.325 13.4433C13.5077 14.3435 12.852 15.3783 12.387 16.5018H9.75V11.6538L11.6655 10.3758C11.8247 10.2629 11.9336 10.0925 11.9691 9.90065C12.0047 9.70881 11.9641 9.51067 11.856 9.34828C11.7478 9.18588 11.5807 9.07201 11.39 9.03084C11.1992 8.98967 11 9.02444 10.8345 9.12776L9 10.3518L7.1655 9.12776C7.08365 9.06973 6.99098 9.0287 6.89298 9.00712C6.79499 8.98554 6.69366 8.98385 6.595 9.00214C6.49634 9.02042 6.40235 9.05833 6.3186 9.11359C6.23485 9.16886 6.16304 9.24037 6.10742 9.3239C6.05181 9.40742 6.01352 9.50125 5.99483 9.59983C5.97613 9.69842 5.97741 9.79975 5.99858 9.89784C6.01975 9.99592 6.0604 10.0888 6.1181 10.1709C6.1758 10.2529 6.24938 10.3226 6.3345 10.3758L8.25 11.6538V16.5018H5.613C5.14796 15.3783 4.49232 14.3435 3.675 13.4433C2.33141 12.1289 1.55147 10.3436 1.5 8.46476C1.57578 6.54844 2.40735 4.74011 3.81283 3.43526C5.21832 2.13041 7.08334 1.43523 9 1.50176C10.9167 1.43523 12.7817 2.13041 14.1872 3.43526C15.5927 4.74011 16.4242 6.54844 16.5 8.46476C16.4485 10.3436 15.6686 12.1289 14.325 13.4433Z" fill="#0D1E3A"/>
</svg>
