<svg width="24" height="24" viewBox="0 0 24 24" fill="none" xmlns="http://www.w3.org/2000/svg">
<path d="M4.48524 6.1924C4.49874 8.1709 5.68674 9.8404 7.36524 10.5529C7.51074 11.4439 7.82574 12.2824 8.27124 13.0549C4.61124 13.5319 1.77324 16.4749 1.47924 20.1379C1.47774 20.5429 1.14624 20.8729 0.739744 20.8729C0.334744 20.8729 0.00474414 20.5429 0.00324414 20.1379H0.000244141C0.258244 16.2349 2.84724 12.9394 6.56574 11.7994C4.40274 10.7944 3.00474 8.6299 3.01974 6.1909C3.01974 2.7769 5.79624 0.00039959 9.21174 0.00039959C10.8662 0.00039959 12.4232 0.6439 13.5932 1.8124C13.6165 1.83566 13.6359 1.86149 13.6553 1.88737C13.6723 1.9099 13.6892 1.93246 13.7087 1.9534C13.1102 2.0344 12.5297 2.1694 11.9852 2.3839C11.2052 1.8139 10.2512 1.4644 9.21174 1.4644C6.60624 1.4644 4.48524 3.5854 4.48524 6.1924Z" fill="#0D1E3A"/>
<path fill-rule="evenodd" clip-rule="evenodd" d="M17.3708 14.921C21.0593 16.0355 23.6903 19.385 23.9303 23.249C23.9303 23.2513 23.9311 23.2536 23.9318 23.2558C23.9326 23.258 23.9333 23.2603 23.9333 23.2625C23.9333 23.669 23.6033 24.0006 23.1953 24.0006C22.7888 24.0006 22.4603 23.6706 22.4588 23.264H22.4498C22.1303 19.307 18.8258 16.13 14.8028 16.0835C10.6508 16.0835 7.30434 19.2635 6.98184 23.264C6.98034 23.6706 6.65034 24.0006 6.24384 24.0006C5.83734 24.0006 5.50734 23.6706 5.50734 23.264H5.50284C5.76084 19.3625 8.34984 16.0656 12.0698 14.9255C9.90534 13.922 8.50734 11.7575 8.52234 9.31855C8.52234 5.90455 11.3003 3.12655 14.7143 3.12655C16.3688 3.12655 17.9273 3.77005 19.0958 4.94005C20.2658 6.11005 20.9108 7.66405 20.9108 9.32005C20.9258 11.756 19.5293 13.916 17.3708 14.921ZM9.98784 9.32005C10.0073 11.9555 12.1118 14.0465 14.6813 14.0465C17.3228 14.045 19.4423 11.924 19.4423 9.32005C19.4423 6.71305 17.3213 4.59205 14.7143 4.59205C12.1088 4.59205 9.98784 6.71305 9.98784 9.32005Z" fill="#0D1E3A"/>
</svg>
