<svg width="26" height="26" viewBox="0 0 26 26" fill="none" xmlns="http://www.w3.org/2000/svg">
<path d="M13.7499 5.9995C13.7499 6.41371 13.4141 6.7495 12.9999 6.7495C12.5857 6.7495 12.2499 6.41371 12.2499 5.9995V4.4995C12.2499 4.08529 12.5857 3.7495 12.9999 3.7495C13.4141 3.7495 13.7499 4.08529 13.7499 4.4995V5.9995Z" fill="#0D1E3A"/>
<path fill-rule="evenodd" clip-rule="evenodd" d="M13.0252 15.7195C13.7375 15.7211 14.4225 15.445 14.9347 14.95H14.9497C15.7567 14.146 19.5997 7.92099 20.3617 6.68199C20.5429 6.38648 20.498 6.00527 20.253 5.75997C20.0081 5.51468 19.627 5.4692 19.3312 5.64999C18.0907 6.41199 11.8642 10.255 11.0512 11.068C10.2866 11.8612 10.0703 13.0347 10.502 14.0484C10.9336 15.0621 11.9294 15.7195 13.0312 15.718L13.0252 15.7195ZM12.1162 12.1195C12.4897 11.746 14.9662 10.1425 17.3797 8.62599C15.8692 11.026 14.2717 13.495 13.8892 13.876C13.3959 14.319 12.6427 14.3002 12.1721 13.8332C11.7015 13.3662 11.6769 12.6131 12.1162 12.1165V12.1195Z" fill="#0D1E3A"/>
<path d="M6.74938 13C6.74938 13.4142 6.41359 13.75 5.99938 13.75H4.49938C4.08517 13.75 3.74938 13.4142 3.74938 13C3.74938 12.5858 4.08517 12.25 4.49938 12.25H5.99938C6.41359 12.25 6.74938 12.5858 6.74938 13Z" fill="#0D1E3A"/>
<path d="M7.5202 8.58102C7.81448 8.86525 8.28226 8.86118 8.57156 8.57188C8.86086 8.28258 8.86493 7.8148 8.5807 7.52052L7.5202 6.46002C7.33189 6.26505 7.05304 6.18686 6.79082 6.2555C6.52859 6.32413 6.32381 6.52892 6.25517 6.79114C6.18654 7.05336 6.26473 7.33221 6.4597 7.52052L7.5202 8.58102Z" fill="#0D1E3A"/>
<path d="M19.2504 13C19.2504 13.4142 19.5862 13.75 20.0004 13.75H21.5004C21.9146 13.75 22.2504 13.4142 22.2504 13C22.2504 12.5858 21.9146 12.25 21.5004 12.25H20.0004C19.5862 12.25 19.2504 12.5858 19.2504 13Z" fill="#0D1E3A"/>
<path fill-rule="evenodd" clip-rule="evenodd" d="M21.4495 4.1093C26.1814 8.61846 26.5398 16.0483 22.2639 20.992C22.2611 20.9959 22.2614 21.0005 22.2614 21.0005C22.2617 21.0049 22.262 21.0107 22.2489 21.0295C22.237 21.0465 22.2207 21.0582 22.2042 21.0701C22.1916 21.0792 22.1789 21.0883 22.1679 21.1C19.8637 23.7264 16.5437 25.2382 13.0499 25.252C9.55603 25.2658 6.22415 23.7801 3.89938 21.172C3.8429 21.1318 3.7924 21.0838 3.74938 21.0295L3.7479 21.0271C3.74075 21.0158 3.73288 21.0032 3.73288 20.992C-0.543064 16.0483 -0.184683 8.61846 4.54722 4.1093C9.27912 -0.399857 16.7176 -0.399857 21.4495 4.1093ZM22.6595 8.27708C20.8584 4.58507 17.108 2.24482 13.0001 2.24951C8.89187 2.24421 5.14109 4.58453 3.34007 8.27691C1.53905 11.9693 2.00382 16.3658 4.53708 19.6C7.07329 18.0069 10.019 17.188 13.0136 17.2435C15.9998 17.1908 18.9366 18.0097 21.4646 19.6C23.9967 16.3653 24.4607 11.9691 22.6595 8.27708ZM5.57959 20.7595C7.81897 19.403 10.3958 18.7063 13.0136 18.7495C15.6225 18.709 18.1899 19.4057 20.4206 20.7595C16.2772 24.7472 9.72298 24.7472 5.57959 20.7595Z" fill="#0D1E3A"/>
</svg>
