<?xml version="1.0" encoding="UTF-8"?>
<svg width="44px" height="44px" viewBox="0 0 44 44" version="1.1" xmlns="http://www.w3.org/2000/svg" xmlns:xlink="http://www.w3.org/1999/xlink">
    <title>Group 6</title>
    <defs>
        <polygon id="path-1" points="0 0.000264705882 8.21302941 0.000264705882 8.21302941 17.7465176 0 17.7465176"></polygon>
    </defs>
    <g id="TEMPLATES" stroke="none" stroke-width="1" fill="none" fill-rule="evenodd">
        <g id="1440-SEO-Template" transform="translate(-220.000000, -938.000000)">
            <g id="Table-of-Contents" transform="translate(100.000000, 582.000000)">
                <g id="Social" transform="translate(0.000000, 321.000000)">
                    <g id="Group-6" transform="translate(120.000000, 35.000000)">
                        <circle id="Oval" fill="#D2D6D9" cx="22" cy="22" r="22"></circle>
                        <g id="facebook" transform="translate(18.000000, 13.000000)">
                            <mask id="mask-2" fill="white">
                                <use xlink:href="#path-1"></use>
                            </mask>
                            <g id="Clip-2"></g>
                            <path d="M1.77538235,3.43704706 L1.77538235,5.88028235 L-0.000264705882,5.88028235 L-0.000264705882,8.86775294 L1.77538235,8.86775294 L1.77538235,17.7465176 L5.42144118,17.7465176 L5.42144118,8.86775294 L7.86891176,8.86775294 C7.86891176,8.86775294 8.09708824,7.43569412 8.20879412,5.86916471 L5.43573529,5.86916471 L5.43573529,3.82563529 C5.43573529,3.52069412 5.83279412,3.1104 6.22561765,3.1104 L8.21302941,3.1104 L8.21302941,0.000105882353 L5.51144118,0.000105882353 C1.68538235,0.000105882353 1.77538235,2.99022353 1.77538235,3.43704706" id="Fill-1" fill="#FFFFFF" mask="url(#mask-2)"></path>
                        </g>
                    </g>
                </g>
            </g>
        </g>
    </g>
</svg>