<?xml version="1.0" encoding="UTF-8"?>
<svg width="44px" height="44px" viewBox="0 0 44 44" version="1.1" xmlns="http://www.w3.org/2000/svg" xmlns:xlink="http://www.w3.org/1999/xlink">
    <title>Group 4</title>
    <defs>
        <polygon id="path-1" points="0 15.8536421 16.5886316 15.8536421 16.5886316 0.000168421053 0 0.000168421053"></polygon>
    </defs>
    <g id="TEMPLATES" stroke="none" stroke-width="1" fill="none" fill-rule="evenodd">
        <g id="1440-SEO-Template" transform="translate(-100.000000, -938.000000)">
            <g id="Table-of-Contents" transform="translate(100.000000, 582.000000)">
                <g id="Social" transform="translate(0.000000, 321.000000)">
                    <g id="Group-4" transform="translate(0.000000, 35.000000)">
                        <circle id="Oval" fill="#D2D6D9" cx="22" cy="22" r="22"></circle>
                        <g id="linkedin" transform="translate(14.000000, 14.000000)">
                            <path d="M9.28926316,15.8536421 L9.28926316,9.87890526 C9.28926316,9.55974737 9.31284211,9.24058947 9.408,9.01237895 C9.66484211,8.37322105 10.2492632,7.71132632 11.232,7.71132632 C12.5178947,7.71132632 13.0332632,8.69237895 13.0332632,10.1306947 L13.0332632,15.8536421 L16.5886316,15.8536421 L16.5886316,9.72058947 C16.5886316,6.43301053 14.8345263,4.90543158 12.4943158,4.90543158 C10.6046316,4.90543158 9.76168421,5.94458947 9.28926316,6.67385263 L9.28926316,6.70753684 L9.26736842,6.70753684 C9.27242105,6.69743158 9.28168421,6.6848 9.28926316,6.67385263 L9.28926316,5.15722105 L5.73389474,5.15722105 C5.78105263,6.16016842 5.73389474,15.8536421 5.73389474,15.8536421 L9.28926316,15.8536421 Z" id="Fill-1" fill="#FFFFFF"></path>
                            <mask id="mask-2" fill="white">
                                <use xlink:href="#path-1"></use>
                            </mask>
                            <g id="Clip-4"></g>
                            <polygon id="Fill-3" fill="#FFFFFF" mask="url(#mask-2)" points="0.210526316 15.8536421 3.76757895 15.8536421 3.76757895 5.15722105 0.210526316 5.15722105"></polygon>
                            <path d="M1.96522105,3.69574737 L1.9888,3.69574737 C3.22837895,3.69574737 4.00058947,2.87469474 4.00058947,1.84732632 C3.97701053,0.798905263 3.22837895,-0.000252631579 2.01237895,-0.000252631579 C0.795536842,-0.000252631579 -0.000252631579,0.798905263 -0.000252631579,1.84732632 C-0.000252631579,2.87469474 0.773642105,3.69574737 1.96522105,3.69574737" id="Fill-5" fill="#FFFFFF" mask="url(#mask-2)"></path>
                        </g>
                    </g>
                </g>
            </g>
        </g>
    </g>
</svg>