<svg width="24" height="24" viewBox="0 0 24 24" fill="none" xmlns="http://www.w3.org/2000/svg">
<path fill-rule="evenodd" clip-rule="evenodd" d="M23.9175 8.29069C23.7242 7.76777 23.2256 7.42061 22.668 7.42069H15.708L13.2495 0.865691C13.0545 0.345005 12.5568 0 12.0008 0C11.4448 0 10.9471 0.345005 10.752 0.865691L8.29354 7.42069H1.33354C0.775362 7.42039 0.276062 7.76777 0.0822758 8.29123C-0.111511 8.81469 0.0412256 9.40345 0.465038 9.76669L6.27754 14.7482L3.77854 22.2482C3.59295 22.7994 3.78607 23.4074 4.25577 23.7505C4.72546 24.0936 5.36335 24.0926 5.83204 23.7482L12 19.2197L18.168 23.7437C18.6367 24.0881 19.2746 24.0891 19.7443 23.746C20.214 23.4029 20.4071 22.7949 20.2215 22.2437L17.7225 14.7437L23.5335 9.76219C23.9565 9.40014 24.1096 8.81324 23.9175 8.29069ZM16.7475 13.6097C16.2836 14.0057 16.1057 14.6432 16.2975 15.2222L18.63 22.2227L12.885 18.0092C12.357 17.6218 11.6386 17.6218 11.1105 18.0092L5.36704 22.2227L7.70104 15.2222C7.89351 14.6427 7.71555 14.0045 7.25104 13.6082L1.78504 8.92069H8.29354C8.91846 8.92155 9.47844 8.53488 9.69904 7.95019L12 1.80019L14.3025 7.95019C14.5222 8.53606 15.0824 8.92408 15.708 8.92369H22.2165L16.7475 13.6097Z" fill="#0D1E3A"/>
</svg>
