<svg width="24" height="24" viewBox="0 0 24 24" fill="none" xmlns="http://www.w3.org/2000/svg">
<path fill-rule="evenodd" clip-rule="evenodd" d="M10.5 13.5H4.5V7.5H10.5V13.5ZM9 9H6V12H9V9Z" fill="#0D1E3A"/>
<path fill-rule="evenodd" clip-rule="evenodd" d="M13.5 13.5H19.5V7.5H13.5V13.5ZM15 9H18V12H15V9Z" fill="#0D1E3A"/>
<path fill-rule="evenodd" clip-rule="evenodd" d="M19.5 3H21C21.8284 3 22.5 3.67157 22.5 4.5V24H1.5V4.5C1.5 3.67157 2.17157 3 3 3H4.5V1.5C4.5 0.671573 5.17157 0 6 0H18C18.8284 0 19.5 0.671573 19.5 1.5V3ZM18 1.5H6V3H18V1.5ZM7.5 22.5V16.5H16.5V22.5H7.5ZM18 22.5H21V4.5H3V22.5H6V16.5C6 15.6716 6.67157 15 7.5 15H16.5C17.3284 15 18 15.6716 18 16.5V22.5Z" fill="#0D1E3A"/>
</svg>
