<svg width="24" height="24" viewBox="0 0 24 24" fill="none" xmlns="http://www.w3.org/2000/svg">
<path fill-rule="evenodd" clip-rule="evenodd" d="M17.522 12.0859L17.7717 12.2584C17.9573 12.3866 18.0345 12.6229 17.9604 12.836L17.9535 12.853L17.9538 14.2382C18.3517 14.3202 18.7274 14.4675 19.0694 14.6658L19.2705 14.7907L20.2609 13.799L20.2681 13.7868C20.382 13.574 20.6313 13.4725 20.8614 13.5452L21.1978 13.6514C21.375 13.7074 21.5067 13.8567 21.5402 14.0395L21.5948 14.338C21.6354 14.56 21.5229 14.7817 21.3198 14.8799L21.2982 14.8895L20.3344 15.8547C20.5525 16.1828 20.7225 16.5448 20.8301 16.9343L20.887 17.1714L22.2833 17.1707L22.3103 17.1636C22.5413 17.0937 22.7893 17.1982 22.9007 17.4123L23.0634 17.7253C23.1491 17.8902 23.1367 18.0889 23.0311 18.2418L22.8586 18.4915C22.7304 18.6772 22.4941 18.7544 22.281 18.6802L22.2683 18.6755L20.887 18.6761C20.805 19.0741 20.6577 19.4497 20.4594 19.7917L20.3344 19.9928L21.4537 21.1123L21.4602 21.116C21.673 21.2299 21.7745 21.4792 21.7018 21.7093L21.5956 22.0457C21.5396 22.2229 21.3903 22.3547 21.2076 22.3881L20.909 22.4427C20.6871 22.4833 20.4653 22.3708 20.3671 22.1677L20.3522 22.1386L19.2705 21.0568C18.9424 21.2749 18.5804 21.4449 18.1908 21.5524L17.9538 21.6093L17.9535 23.1638L17.9623 23.1903C18.0322 23.4213 17.9278 23.6693 17.7136 23.7807L17.4006 23.9434C17.2358 24.0291 17.037 24.0167 16.8841 23.9111L16.6344 23.7386C16.4488 23.6104 16.3716 23.3741 16.4457 23.161L16.4487 23.1498L16.449 21.6034C16.0513 21.5216 15.6796 21.3739 15.3389 21.1758L15.1382 21.0509L14.0872 22.1004L14.0737 22.1301C13.9878 22.3078 13.8073 22.4162 13.6148 22.4133L13.5319 22.4051L13.2333 22.3505C13.081 22.3226 12.9519 22.2265 12.8807 22.0927L12.8453 22.0081L12.739 21.6717C12.6754 21.4704 12.7452 21.2543 12.9062 21.1272L12.9806 21.0784L12.9857 21.0752L14.0743 19.987C13.8564 19.659 13.6821 19.3007 13.5732 18.9126L13.5158 18.6761L12.2223 18.6755L12.2113 18.6802C12.0249 18.7451 11.8206 18.6941 11.6866 18.556L11.6337 18.4915L11.4612 18.2418C11.3732 18.1144 11.3499 17.9551 11.3942 17.8102L11.4289 17.7253L11.5916 17.4123C11.6891 17.2249 11.8912 17.1215 12.0949 17.1455L12.182 17.1636L12.2072 17.1707L13.5158 17.1714C13.5979 16.7732 13.7491 16.4022 13.9488 16.0614L14.0743 15.8605L13.0158 14.8012L12.9769 14.7808C12.7641 14.6669 12.6626 14.4176 12.7353 14.1875L12.8416 13.8511C12.8975 13.6739 13.0468 13.5422 13.2296 13.5087L13.5282 13.4541C13.7493 13.4136 13.9703 13.5253 14.069 13.727L15.1411 14.7995C15.4689 14.582 15.8277 14.4095 16.214 14.3012L16.449 14.2441L16.4487 12.8229L16.4438 12.8067C16.3739 12.5757 16.4784 12.3276 16.6925 12.2163L17.0055 12.0536C17.1704 11.9678 17.3691 11.9803 17.522 12.0859ZM10.1211 0C11.7824 0 13.3444 0.644053 14.5166 1.8193C15.6903 2.99153 16.3374 4.55201 16.3374 6.2133C16.3524 8.65709 14.6359 10.9987 12.7861 11.8322C12.0832 12.3063 11.5231 12.9984 10.2084 12.9984C6.04308 12.9984 2.68739 16.1886 2.36386 20.2019C2.36235 20.6082 2.0313 20.9392 1.6235 20.9392C1.2157 20.9392 0.884641 20.6082 0.880127 20.2019C1.14046 16.2864 3.73623 12.9804 7.46812 11.8367C5.2967 10.83 3.89423 8.6586 3.90928 6.2118C3.90928 2.78538 6.69616 0 10.1211 0ZM17.2014 15.6666C15.9459 15.6666 14.9442 16.6682 14.9442 17.9237C14.9442 19.1793 15.9459 20.1809 17.2014 20.1809C18.4569 20.1809 19.4586 19.1793 19.4586 17.9237C19.4586 16.6682 18.4569 15.6666 17.2014 15.6666ZM10.1211 1.47019C7.50725 1.47019 5.37947 3.59797 5.37947 6.2133C5.39903 8.85723 7.51026 10.9549 10.088 10.9549C12.7379 10.9534 14.8642 8.82563 14.8642 6.2133C14.8642 3.59797 12.7364 1.47019 10.1211 1.47019Z" fill="#0D1E3A"/>
</svg>
