<svg width="24" height="24" viewBox="0 0 24 24" fill="none" xmlns="http://www.w3.org/2000/svg">
<path d="M4.48524 6.19243C4.49874 8.17093 5.68674 9.84043 7.36524 10.5529C7.51074 11.4439 7.82574 12.2824 8.27124 13.0549C4.61124 13.5319 1.77324 16.4749 1.47924 20.1379C1.47774 20.5429 1.14624 20.8729 0.739744 20.8729C0.334744 20.8729 0.00474414 20.5429 0.00324414 20.1379H0.000244141C0.258244 16.2349 2.84724 12.9394 6.56574 11.7994C4.40274 10.7944 3.00474 8.62993 3.01974 6.19093C3.01974 2.77693 5.79624 0.000427246 9.21174 0.000427246C10.8662 0.000427246 12.4232 0.643927 13.5932 1.81243C13.6165 1.83569 13.6359 1.86152 13.6553 1.8874C13.6723 1.90992 13.6892 1.93249 13.7087 1.95343C13.1102 2.03443 12.5297 2.16943 11.9852 2.38393C11.2052 1.81393 10.2512 1.46443 9.21174 1.46443C6.60624 1.46443 4.48524 3.58543 4.48524 6.19243Z" fill="#0D1E3A"/>
<path fill-rule="evenodd" clip-rule="evenodd" d="M17.3708 14.9211C21.0593 16.0356 23.6903 19.3851 23.9303 23.2491C23.9303 23.2513 23.9311 23.2536 23.9318 23.2558C23.9326 23.2581 23.9333 23.2603 23.9333 23.2626C23.9333 23.6691 23.6033 24.0006 23.1953 24.0006C22.7888 24.0006 22.4603 23.6706 22.4588 23.2641H22.4498C22.1303 19.3071 18.8258 16.1301 14.8028 16.0836C10.6508 16.0836 7.30434 19.2636 6.98184 23.2641C6.98034 23.6706 6.65034 24.0006 6.24384 24.0006C5.83734 24.0006 5.50734 23.6706 5.50734 23.2641H5.50284C5.76084 19.3626 8.34984 16.0656 12.0698 14.9256C9.90534 13.9221 8.50734 11.7576 8.52234 9.31858C8.52234 5.90458 11.3003 3.12658 14.7143 3.12658C16.3688 3.12658 17.9273 3.77008 19.0958 4.94008C20.2658 6.11008 20.9108 7.66408 20.9108 9.32008C20.9258 11.7561 19.5293 13.9161 17.3708 14.9211ZM9.98784 9.32008C10.0073 11.9556 12.1118 14.0466 14.6813 14.0466C17.3228 14.0451 19.4423 11.9241 19.4423 9.32008C19.4423 6.71308 17.3213 4.59208 14.7143 4.59208C12.1088 4.59208 9.98784 6.71308 9.98784 9.32008Z" fill="#0D1E3A"/>
</svg>
