<svg width="22" height="24" viewBox="0 0 22 24" fill="none" xmlns="http://www.w3.org/2000/svg">
<path fill-rule="evenodd" clip-rule="evenodd" d="M18.5 0C20.1569 0 21.5 1.34315 21.5 3V21C21.5 22.6569 20.1569 24 18.5 24H3.5C1.84315 24 0.5 22.6569 0.5 21V3C0.5 1.34315 1.84315 0 3.5 0H18.5ZM18.5 1.5H3.5C2.67157 1.5 2 2.17157 2 3V21C2 21.8284 2.67157 22.5 3.5 22.5H18.5C19.3284 22.5 20 21.8284 20 21V3C20 2.17157 19.3284 1.5 18.5 1.5ZM11 6C12.5229 5.99979 13.8573 7.01948 14.2571 8.48895C14.6569 9.95842 14.0231 11.5136 12.71 12.285C14.8287 13.0149 16.2506 15.0091 16.25 17.25C16.25 17.6642 15.9142 18 15.5 18C15.0858 18 14.75 17.6642 14.75 17.25C14.75 15.1789 13.0711 13.5 11 13.5C8.92893 13.5 7.25 15.1789 7.25 17.25C7.25 17.6642 6.91421 18 6.5 18C6.08579 18 5.75 17.6642 5.75 17.25C5.74945 15.0091 7.17131 13.0149 9.29 12.285C7.97693 11.5136 7.34312 9.95842 7.74292 8.48895C8.14273 7.01948 9.47711 5.99979 11 6ZM11 7.5C9.96447 7.5 9.125 8.33947 9.125 9.375C9.125 10.4105 9.96447 11.25 11 11.25C12.0355 11.25 12.875 10.4105 12.875 9.375C12.875 8.33947 12.0355 7.5 11 7.5Z" fill="#0D1E3A"/>
</svg>
