<svg width="24" height="24" viewBox="0 0 24 24" fill="none" xmlns="http://www.w3.org/2000/svg">
<path fill-rule="evenodd" clip-rule="evenodd" d="M20.625 7.5H3.375C1.51104 7.5 0 5.98896 0 4.125C0 2.26104 1.51104 0.75 3.375 0.75H20.625C22.489 0.75 24 2.26104 24 4.125C24 5.98896 22.489 7.5 20.625 7.5ZM22.5 4.125C22.5 3.08947 21.6605 2.25 20.625 2.25H19.5V6H20.625C21.6605 6 22.5 5.16053 22.5 4.125ZM18 2.25V6H15.75V2.25H18ZM14.25 2.25H3.375C2.33947 2.25 1.5 3.08947 1.5 4.125C1.5 5.16053 2.33947 6 3.375 6H14.25V2.25Z" fill="#0D1E3A"/>
<path fill-rule="evenodd" clip-rule="evenodd" d="M3.375 9H20.625C22.489 9 24 10.511 24 12.375C24 14.239 22.489 15.75 20.625 15.75H3.375C1.51104 15.75 0 14.239 0 12.375C0 10.511 1.51104 9 3.375 9ZM1.5 12.375C1.5 13.4105 2.33947 14.25 3.375 14.25H8.25V10.5H3.375C2.33947 10.5 1.5 11.3395 1.5 12.375ZM9.75 10.5H15V14.25H9.75V10.5ZM16.5 14.25H20.625C21.6605 14.25 22.5 13.4105 22.5 12.375C22.5 11.3395 21.6605 10.5 20.625 10.5H16.5V14.25Z" fill="#0D1E3A"/>
<path fill-rule="evenodd" clip-rule="evenodd" d="M20.625 17.25H3.375C1.51104 17.25 0 18.761 0 20.625C0 22.489 1.51104 24 3.375 24H20.625C22.489 24 24 22.489 24 20.625C24 18.761 22.489 17.25 20.625 17.25ZM3.375 22.5C2.33947 22.5 1.5 21.6605 1.5 20.625C1.5 19.5895 2.33947 18.75 3.375 18.75H4.5V22.5H3.375ZM9 18.75H6V22.5H9V18.75ZM20.625 22.5H10.5V18.75H20.625C21.6605 18.75 22.5 19.5895 22.5 20.625C22.5 21.6605 21.6605 22.5 20.625 22.5Z" fill="#0D1E3A"/>
</svg>
