<svg width="24" height="24" viewBox="0 0 24 24" fill="none" xmlns="http://www.w3.org/2000/svg">
<path d="M11.9022 2.93972C10.6873 1.12274 8.71894 0 6.56853 0C3.00211 0 0.0776445 3.06463 0.00152062 6.91396C0.000511928 6.93245 0 6.95111 0 6.9699L0.000151339 7.0193L0 7.06789C0 7.08613 0.000482296 7.10424 0.00143288 7.1222C0.0185695 8.03552 0.189314 8.99001 0.508144 9.98088L0.592136 10.236C0.74592 10.6828 1.18237 10.9002 1.56698 10.7215C1.95159 10.5429 2.13871 10.0358 1.98493 9.58897L1.80324 9.00598C1.60572 8.30256 1.50531 7.63985 1.5002 7.01964C1.52486 4.11821 3.77088 1.74268 6.56853 1.74268C8.56663 1.74268 10.3445 2.96783 11.1676 4.82745C11.2997 5.126 11.5597 5.2983 11.83 5.30049C12.147 5.36734 12.4774 5.18986 12.6315 4.8393C13.4521 2.97338 15.2332 1.74268 17.2358 1.74268C20.0343 1.74268 22.2809 4.11971 22.3042 7.02239C22.2986 7.75247 22.1631 8.53557 21.8936 9.37331L21.8253 9.57833C21.6715 10.0252 21.8586 10.5322 22.2432 10.7109C22.6278 10.8896 23.0643 10.6722 23.2181 10.2253L23.2986 9.98352C23.6176 8.99213 23.7871 8.03671 23.8031 7.11874C23.8039 7.10192 23.8043 7.08496 23.8043 7.06789L23.8042 7.02211L23.8043 6.97526C23.8043 6.9575 23.8039 6.93986 23.803 6.92237C23.731 3.0691 20.8048 0 17.2358 0C15.0852 0 13.1169 1.12298 11.9022 2.93972Z" fill="#071E3C"/>
<path d="M19.0217 15.8555C19.3195 16.1899 19.3277 16.7415 19.0398 17.0875L18.918 17.2334C17.1926 19.2882 15.0055 21.4836 12.3559 23.8225C12.0877 24.0592 11.7166 24.0592 11.4484 23.8225C8.79493 21.4802 6.60536 19.2817 4.87881 17.2244C4.58965 16.8798 4.59567 16.3281 4.89226 15.9922C5.18884 15.6563 5.66367 15.6632 5.95283 16.0078C7.39187 17.7226 9.17557 19.5509 11.3034 21.4909L11.902 22.0309L11.9611 21.9789C14.1562 20.0114 16.004 18.1566 17.5042 16.4161L17.9612 15.8766C18.249 15.5305 18.7238 15.5211 19.0217 15.8555Z" fill="#071E3C"/>
<path d="M8.82505 7.92117C8.52898 7.33103 7.75588 7.34983 7.49798 8.00328L5.752 12.4265L0.75 12.4273L0.648229 12.4353C0.282154 12.4929 0 12.8575 0 13.2986C0 13.7799 0.335786 14.17 0.75 14.17H6.23311L6.34157 14.1608C6.59065 14.1186 6.80792 13.9328 6.91485 13.6618L8.137 10.5629L10.3009 16.7602L10.3519 16.8806C10.6384 17.4456 11.3704 17.455 11.6544 16.8497L13.9 12.0628L14.5995 13.6883L14.6531 13.7937C14.7918 14.0272 15.0218 14.17 15.2703 14.17H23.25L23.3518 14.162C23.7178 14.1043 24 13.7398 24 13.2986L23.9932 13.1804C23.9435 12.7551 23.6297 12.4273 23.25 12.4273L15.733 12.4265L14.5999 9.792L14.5436 9.68115C14.2348 9.16289 13.5425 9.18516 13.2706 9.76456L11.095 14.4003L8.87473 8.03895L8.82505 7.92117Z" fill="#071E3C"/>
</svg>
