<svg width="24" height="24" viewBox="0 0 24 24" fill="none" xmlns="http://www.w3.org/2000/svg">
<path fill-rule="evenodd" clip-rule="evenodd" d="M1.51994 11.4807C2.45664 10.8516 3.35395 10.4899 4.29967 10.4899C5.50528 10.4899 6.63222 11.0777 7.86238 12.058C9.17073 10.8899 10.5518 10.2408 12 10.2408C13.4482 10.2408 14.8293 10.8899 16.1376 12.058C17.3678 11.0777 18.4947 10.4899 19.7003 10.4899C20.646 10.4899 21.5434 10.8516 22.4801 11.4807C21.7433 6.35264 17.332 2.41176 12 2.41176C6.66799 2.41176 2.25674 6.35264 1.51994 11.4807ZM0 13C0 6.37241 5.37241 1 12 1C18.6276 1 24 6.37241 24 13C24 13.2756 23.8396 13.5261 23.5891 13.6413C23.3387 13.7565 23.0442 13.7154 22.8348 13.536C21.453 12.3521 20.5263 11.9016 19.7003 11.9016C18.8743 11.9016 17.9476 12.3521 16.5658 13.536C16.2858 13.776 15.8682 13.7599 15.6074 13.4991C14.3155 12.2072 13.1156 11.6526 12 11.6526C10.8844 11.6526 9.6845 12.2072 8.39259 13.4991C8.13182 13.7599 7.71424 13.776 7.43418 13.536C6.05237 12.3521 5.12568 11.9016 4.29967 11.9016C3.47366 11.9016 2.54697 12.3521 1.16516 13.536C0.955839 13.7154 0.661274 13.7565 0.410861 13.6413C0.160448 13.5261 0 13.2756 0 13Z" fill="#071E3C" stroke="#071E3C" stroke-width="0.1" stroke-linecap="round" stroke-linejoin="round"/>
<path fill-rule="evenodd" clip-rule="evenodd" d="M11.9999 10.6003C12.3898 10.6003 12.7058 10.9164 12.7058 11.3062V19.5204C12.7058 20.716 12.2306 21.6591 11.4875 22.2931C10.7594 22.9141 9.81327 23.2071 8.89404 23.2071C7.97481 23.2071 7.02866 22.9141 6.30062 22.2931C5.5575 21.6591 5.08228 20.716 5.08228 19.5204C5.08228 19.1306 5.39831 18.8146 5.78816 18.8146C6.17801 18.8146 6.49404 19.1306 6.49404 19.5204C6.49404 20.3121 6.79529 20.8594 7.21687 21.219C7.65354 21.5915 8.26033 21.7954 8.89404 21.7954C9.52775 21.7954 10.1345 21.5915 10.5712 21.219C10.9928 20.8594 11.294 20.3121 11.294 19.5204V11.3062C11.294 10.9164 11.6101 10.6003 11.9999 10.6003Z" fill="#071E3C" stroke="#071E3C" stroke-width="0.1" stroke-linecap="round" stroke-linejoin="round"/>
</svg>
