<svg width="24" height="24" viewBox="0 0 24 24" fill="none" xmlns="http://www.w3.org/2000/svg">
<path d="M23.4961 11.6849L21.776 9.96492C21.4843 9.67354 21.0976 9.49665 20.6864 9.46646C20.2752 9.43627 19.8668 9.5548 19.5356 9.80045L14.1991 4.46418C14.4449 4.13317 14.5636 3.72488 14.5336 3.31368C14.5036 2.90249 14.3269 2.51575 14.0357 2.2239L12.3156 0.503912C12.1559 0.344154 11.9663 0.217426 11.7576 0.130964C11.5489 0.0445019 11.3252 0 11.0992 0C10.8733 0 10.6496 0.0445019 10.4409 0.130964C10.2322 0.217426 10.0426 0.344154 9.88283 0.503912L3.00257 7.38386C2.8428 7.54358 2.71607 7.73321 2.6296 7.94192C2.54314 8.15062 2.49863 8.37431 2.49863 8.60022C2.49863 8.82612 2.54314 9.04981 2.6296 9.25852C2.71607 9.46722 2.8428 9.65685 3.00257 9.81657L4.72263 11.5366C5.01443 11.8275 5.40098 12.004 5.81195 12.034C6.22292 12.064 6.631 11.9455 6.96194 11.7L7.73275 12.4707L0.704132 19.499C0.237177 20.0097 -0.0147976 20.6808 0.000672404 21.3726C0.0161424 22.0644 0.297865 22.7236 0.787181 23.2129C1.2765 23.7021 1.93569 23.9839 2.62752 23.9993C3.31934 24.0148 3.99048 23.7628 4.50117 23.2959L11.5287 16.2676L12.2995 17.0373C12.0537 17.3683 11.935 17.7766 11.965 18.1878C11.995 18.599 12.1717 18.9857 12.4629 19.2776L14.183 20.9976C14.3427 21.1573 14.5324 21.2841 14.7411 21.3705C14.9498 21.457 15.1735 21.5015 15.3994 21.5015C15.6253 21.5015 15.849 21.457 16.0577 21.3705C16.2664 21.2841 16.4561 21.1573 16.6158 20.9976L23.4961 14.1176C23.6558 13.9579 23.7826 13.7683 23.869 13.5596C23.9555 13.3509 24 13.1272 24 12.9013C24 12.6754 23.9555 12.4517 23.869 12.243C23.7826 12.0343 23.6558 11.8446 23.4961 11.6849ZM5.9385 10.3207L4.21844 8.60075L11.0987 1.7208L12.8188 3.44079L5.9385 10.3207ZM3.2853 22.079C3.10402 22.2592 2.8588 22.3603 2.60319 22.3603C2.34758 22.3603 2.10236 22.2592 1.92108 22.079C1.7412 21.8978 1.64026 21.6528 1.64026 21.3975C1.64026 21.1421 1.7412 20.8971 1.92108 20.7159L8.94862 13.6876L10.3128 15.0507L3.2853 22.079ZM8.19609 10.4992L12.9972 5.69827L18.3015 11.0023L13.5014 15.8032L8.19609 10.4992ZM15.3989 19.7807L13.6788 18.0607L14.1088 17.6307L20.129 11.6107L20.5591 11.1807L22.2791 12.9007L15.3989 19.7807Z" fill="#071E3C"/>
</svg>
