<svg width="24" height="24" viewBox="0 0 24 24" fill="none" xmlns="http://www.w3.org/2000/svg">
<path fill-rule="evenodd" clip-rule="evenodd" d="M23.4998 22.5H22.4497V7.675C22.4497 6.675 21.9166 5.95 21.1812 5.95H18.3365C17.6031 5.95 17.071 6.678 17.071 7.675V22.5H14.7293V1.591C14.7763 1.21066 14.6677 0.827481 14.428 0.528073C14.1883 0.228664 13.8379 0.0382985 13.4558 0H10.6101C10.229 0.0395475 9.87978 0.230445 9.64118 0.529707C9.40257 0.82897 9.29461 1.21144 9.3416 1.591V22.5H6.99794V10.672C6.99794 9.672 6.46488 8.947 5.72941 8.947H2.88074C2.14728 8.947 1.61522 9.675 1.61522 10.672V22.5H1.002C0.335668 22.5 0 22.836 0 23.25C0 23.664 0.335668 24 1.002 24H23.4998C23.8028 23.8735 24 23.5778 24 23.25C24 22.9222 23.8028 22.6265 23.4998 22.5ZM3.11821 10.672C3.11775 10.5963 3.12581 10.5209 3.14226 10.447H5.4709C5.48734 10.5209 5.49541 10.5963 5.49494 10.672V22.5H3.11821V10.672ZM10.8446 22.5V1.591C10.8443 1.56056 10.8463 1.53014 10.8506 1.5H13.2143C13.219 1.53011 13.2213 1.56053 13.2213 1.591V22.5H10.8446ZM18.57 22.5V7.675C18.5693 7.59927 18.5778 7.52374 18.595 7.45H20.9227C20.9396 7.52379 20.9476 7.59932 20.9467 7.675V22.5H18.57Z" fill="#0D1E3A"/>
</svg>
