<svg width="22" height="24" viewBox="0 0 22 24" fill="none" xmlns="http://www.w3.org/2000/svg">
<path fill-rule="evenodd" clip-rule="evenodd" d="M20.0051 0.00224785C20.7972 0.00217583 21.4423 0.670774 21.4527 1.50265V18.007C21.4423 18.8428 20.7914 19.513 19.9956 19.5074V22.5082H20.8051C21.1734 22.5188 21.4737 22.8218 21.4984 23.2079C21.523 23.5941 21.264 23.9365 20.9003 23.9986H3.5191C2.74102 24.0229 1.98569 23.7213 1.41942 23.1603C0.853157 22.5994 0.522404 21.8251 0.5 21.0078V3.75325C0.529814 2.72463 0.948381 1.75081 1.66321 1.04697C2.37805 0.343132 3.33031 -0.0327978 4.30958 0.00224785H20.0241H20.0051ZM18.5384 19.5074H3.5191C2.66978 19.4444 1.9324 20.1159 1.87145 21.0078C1.92541 21.8333 2.56957 22.4795 3.35719 22.4982H18.5384V19.5074ZM4.58578 1.50265H4.30958C3.04457 1.41703 1.95298 2.42465 1.87145 3.75325V18.4972L1.95717 18.4372C2.38484 18.1794 2.86467 18.032 3.35719 18.007H4.54768V1.75271C4.54559 1.6676 4.5585 1.58282 4.58578 1.50265ZM5.92866 1.50265C5.93297 1.55256 5.93297 1.60278 5.92866 1.65269V18.007H20.1003V1.50265H5.92866Z" fill="#0D1E3A"/>
</svg>
