<svg width="24" height="24" viewBox="0 0 24 24" fill="none" xmlns="http://www.w3.org/2000/svg">
<path fill-rule="evenodd" clip-rule="evenodd" d="M14.1809 8.85344C14.4816 9.15412 14.4816 9.64162 14.1809 9.9423L11.9998 12.1235L9.81856 9.9423C9.51788 9.64162 9.51788 9.15412 9.81856 8.85344C10.1192 8.55275 10.6067 8.55275 10.9074 8.85344L11.9998 9.94576L13.0921 8.85344C13.3928 8.55275 13.8803 8.55275 14.1809 8.85344Z" fill="#0D1E3A"/>
<path fill-rule="evenodd" clip-rule="evenodd" d="M14.1809 12.9559C14.4816 13.2565 14.4816 13.744 14.1809 14.0447L11.9998 16.2259L9.81856 14.0447C9.51788 13.744 9.51788 13.2565 9.81856 12.9559C10.1192 12.6552 10.6067 12.6552 10.9074 12.9559L11.9998 14.0482L13.0921 12.9559C13.3928 12.6552 13.8803 12.6552 14.1809 12.9559Z" fill="#0D1E3A"/>
<path d="M11.23 11.0008C11.23 10.5756 11.5747 10.2308 11.9999 10.2308C12.4252 10.2308 12.7699 10.5756 12.7699 11.0008V23.23C12.7699 23.6553 12.4252 24 11.9999 24C11.5747 24 11.23 23.6553 11.23 23.23V11.0008Z" fill="#0D1E3A"/>
<path fill-rule="evenodd" clip-rule="evenodd" d="M12 18.6043C14.8337 18.6043 17.2976 16.1235 17.2976 12.8509C17.2976 12.4171 17.163 11.7326 16.8528 10.8068C16.5515 9.90765 16.1209 8.88555 15.6147 7.8141C14.603 5.6723 13.3361 3.43065 12.335 1.74547C12.2443 1.59277 12.1194 1.53989 12 1.53989C11.8807 1.53989 11.7558 1.59277 11.665 1.74547C10.6639 3.43065 9.39709 5.67229 8.38534 7.8141C7.87921 8.88555 7.44857 9.90765 7.14726 10.8068C6.83705 11.7326 6.70249 12.4171 6.70249 12.8509C6.70249 16.1235 9.16639 18.6043 12 18.6043ZM12 20.1442C15.7762 20.1442 18.8375 16.8789 18.8375 12.8509C18.8375 10.1148 15.6826 4.36551 13.6589 0.958986C12.8993 -0.319662 11.1008 -0.319662 10.3411 0.958985C8.31744 4.36551 5.1626 10.1148 5.1626 12.8509C5.1626 16.8789 8.22382 20.1442 12 20.1442Z" fill="#0D1E3A"/>
</svg>
