<svg width="24" height="24" viewBox="0 0 24 24" fill="none" xmlns="http://www.w3.org/2000/svg">
<path fill-rule="evenodd" clip-rule="evenodd" d="M8.66658 10.9888C9.65328 11.6481 10.8133 12 12 12C13.5913 12 15.1174 11.3679 16.2426 10.2426C17.3679 9.11743 18 7.5913 18 6C18 4.81331 17.6481 3.65328 16.9888 2.66658C16.3295 1.67989 15.3925 0.910851 14.2961 0.456725C13.1997 0.00259969 11.9933 -0.11622 10.8295 0.115291C9.66558 0.346802 8.59648 0.918247 7.75736 1.75736C6.91825 2.59648 6.3468 3.66558 6.11529 4.82946C5.88378 5.99335 6.0026 7.19975 6.45673 8.2961C6.91085 9.39246 7.67989 10.3295 8.66658 10.9888ZM9.49994 2.25839C10.24 1.76392 11.11 1.5 12 1.5C13.1935 1.5 14.3381 1.97411 15.182 2.81802C16.0259 3.66194 16.5 4.80653 16.5 6C16.5 6.89002 16.2361 7.76005 15.7416 8.50007C15.2471 9.24009 14.5443 9.81687 13.7221 10.1575C12.8998 10.4981 11.995 10.5872 11.1221 10.4135C10.2492 10.2399 9.44736 9.81132 8.81802 9.18198C8.18869 8.55265 7.7601 7.75082 7.58647 6.87791C7.41284 6.00499 7.50195 5.10019 7.84254 4.27793C8.18314 3.45566 8.75992 2.75286 9.49994 2.25839Z" fill="#0D1E3A"/>
<path d="M21.2197 23.7803C21.3603 23.921 21.5511 24 21.75 24C21.9489 24 22.1397 23.921 22.2803 23.7803C22.421 23.6397 22.5 23.4489 22.5 23.25C22.5 20.4652 21.3938 17.7945 19.4246 15.8254C17.4555 13.8562 14.7848 12.75 12 12.75C9.21523 12.75 6.54451 13.8562 4.57538 15.8254C2.60625 17.7945 1.5 20.4652 1.5 23.25C1.5 23.4489 1.57902 23.6397 1.71967 23.7803C1.86032 23.921 2.05109 24 2.25 24C2.44891 24 2.63968 23.921 2.78033 23.7803C2.92098 23.6397 3 23.4489 3 23.25C3 20.8631 3.94821 18.5739 5.63604 16.886C7.32387 15.1982 9.61305 14.25 12 14.25C14.3869 14.25 16.6761 15.1982 18.364 16.886C20.0518 18.5739 21 20.8631 21 23.25C21 23.4489 21.079 23.6397 21.2197 23.7803Z" fill="#0D1E3A"/>
</svg>
