<svg width="24" height="21" viewBox="0 0 24 21" fill="none" xmlns="http://www.w3.org/2000/svg">
<path fill-rule="evenodd" clip-rule="evenodd" d="M15.9239 6.1732L11.0125 8.18928L10.4841 6.90195L15.3955 4.88586L15.9239 6.1732Z" fill="#071E3C"/>
<path fill-rule="evenodd" clip-rule="evenodd" d="M10.1971 0L15.7883 4.72547L19.9739 3.00724C21.3675 2.4354 22.9206 3.04741 23.6279 4.37784C24.4478 5.91814 23.8717 7.90225 22.3037 8.66992C22.3037 8.66994 22.3038 8.66991 22.3037 8.66992L17.6943 10.9274L16.4633 18.8361L11.6396 20.5874L11.6525 13.0008L7.05264 14.8766C7.05229 14.8767 7.05194 14.8768 7.05159 14.877C6.0961 15.2693 5.02491 14.9384 4.42093 14.1093M4.42093 14.1093L0 8.04968L4.70482 5.61432L7.39847 8.16761L9.73124 7.21075L6.10858 1.24083L10.1971 0M8.22838 2.05174L11.7654 7.88048L7.09414 9.79653L4.4657 7.30504L2.08017 8.53987L5.54509 13.2892C5.78835 13.6233 6.18669 13.728 6.52342 13.5896L6.52532 13.5888L13.0476 10.9291L13.0345 18.6005L15.2149 17.8089L16.4309 9.99672L21.6917 7.42018C22.5103 7.01942 22.8723 5.91984 22.3995 5.03171C22.0085 4.29597 21.1967 4.00971 20.5024 4.29457C20.5023 4.29459 20.5024 4.29456 20.5024 4.29457L15.5353 6.3336L9.87698 1.55141L8.22838 2.05174Z" fill="#071E3C"/>
</svg>
