<svg width="24" height="24" viewBox="0 0 24 24" fill="none" xmlns="http://www.w3.org/2000/svg">
<path d="M18.0291 8.59606C18.3109 8.29246 18.2932 7.81792 17.9896 7.53613C17.686 7.25435 17.2115 7.27204 16.9297 7.57563L10.211 14.8145L7.94843 12.401C7.66513 12.0988 7.1905 12.0835 6.88832 12.3668C6.58614 12.6501 6.57083 13.1247 6.85412 13.4269L9.66662 16.4269C9.80885 16.5786 10.0077 16.6645 10.2157 16.664C10.4236 16.6634 10.622 16.5766 10.7635 16.4242L18.0291 8.59606Z" fill="#0D1E3A"/>
<path fill-rule="evenodd" clip-rule="evenodd" d="M12.284 0.007L12 0C11.2012 0.0187107 10.4145 0.198645 9.687 0.529C9.04495 0.806134 8.41985 1.12102 7.815 1.472L6.723 2.085C6.579 2.164 6.452 2.232 6.332 2.294C5.09803 2.93605 3.80377 3.4549 2.468 3.843L2.368 3.879C1.54256 4.22611 1.00414 5.03256 1 5.928V11.537C1.06846 16.8699 4.46518 21.5906 9.5 23.35L10.589 23.75C11.4995 24.083 12.4985 24.083 13.409 23.75L14.5 23.35C19.5348 21.5906 22.9315 16.8699 23 11.537V5.923C22.9939 5.02849 22.4543 4.22405 21.629 3.879L21.529 3.843C20.1758 3.44903 18.8578 2.9426 17.589 2.329C17.354 2.217 17.12 2.097 16.871 1.962L16.476 1.742C16.1174 1.5375 15.4347 1.13976 15.454 1.15042L15.027 0.91C14.762 0.765 14.531 0.648 14.3 0.542C13.6688 0.235255 12.9842 0.0535805 12.284 0.007ZM11.993 1.5H12.007C12.567 1.5055 13.1185 1.63782 13.62 1.887C13.864 1.999 14.118 2.131 14.441 2.313L15.822 3.113C16.197 3.323 16.539 3.502 16.887 3.668L17.423 3.918L18.063 4.2C18.881 4.55176 19.7164 4.8615 20.566 5.128L21 5.257L20.978 5.243C21.2499 5.35747 21.4273 5.62302 21.429 5.918V11.537C21.3686 16.2377 18.3748 20.3988 13.937 21.95L12.846 22.35C12.2997 22.55 11.7003 22.55 11.154 22.35L10.063 21.95C5.62712 20.3993 2.63403 16.2407 2.572 11.542V5.928L2.579 5.819L2.609 5.694C2.66428 5.52994 2.77541 5.3905 2.923 5.3L2.98707 5.26043C4.40007 4.8457 5.76949 4.29465 7.076 3.615L7.352 3.47L8.616 2.761C9.16522 2.44078 9.73288 2.15328 10.316 1.9C10.8432 1.65738 11.4131 1.52144 11.993 1.5ZM2.98707 5.26043L2.991 5.258L2.92 5.28C2.94237 5.27351 2.96473 5.26698 2.98707 5.26043Z" fill="#0D1E3A"/>
</svg>
