<svg width="24" height="24" viewBox="0 0 24 24" fill="none" xmlns="http://www.w3.org/2000/svg">
<path fill-rule="evenodd" clip-rule="evenodd" d="M23.3175 15.951C24.2315 13.3901 24.2315 10.5919 23.3175 8.031C23.3066 7.9924 23.2926 7.95477 23.2755 7.9185C21.5589 3.18024 17.0665 0.0177948 12.027 0H11.9745C6.93911 0.0169223 2.44987 3.17568 0.733466 7.9095C0.71158 7.95407 0.694485 8.00083 0.682466 8.049C-0.227489 10.6044 -0.227489 13.3956 0.682466 15.951C0.694485 15.9992 0.71158 16.0459 0.733466 16.0905C2.44798 20.837 6.95334 23.9998 12 23.9998C17.0466 23.9998 21.5519 20.837 23.2665 16.0905C23.2884 16.0459 23.3054 15.9992 23.3175 15.951ZM8.29829 15C8.1119 14.0038 8.03295 12.9905 8.06279 11.9775C8.03317 10.9796 8.11061 9.98139 8.29379 9H15.7023C15.8887 9.99618 15.9676 11.0095 15.9378 12.0225C15.9674 13.0204 15.89 14.0186 15.7068 15H8.29829ZM15.3388 16.5C14.69 18.6271 13.5456 20.5698 11.9998 22.1685C10.455 20.5697 9.31217 18.6269 8.66528 16.5H15.3388ZM1.49997 12C1.50059 10.9838 1.64966 9.97312 1.94247 9H6.77997C6.61058 9.98304 6.53773 10.9803 6.56247 11.9775C6.53697 12.9898 6.61082 14.0021 6.78297 15H1.94997C1.65462 14.0273 1.50302 13.0166 1.49997 12ZM8.66097 7.5C9.31032 5.37316 10.4546 3.43055 12 1.8315C13.545 3.43005 14.6879 5.37295 15.3345 7.5H8.66097ZM17.2112 9H22.0517C22.6417 10.9565 22.6417 13.0435 22.0517 15H17.2202C17.3896 14.017 17.4624 13.0197 17.4377 12.0225C17.4632 11.0102 17.3893 9.99787 17.2172 9H17.2112ZM16.8853 7.50002C16.31 5.36806 15.2873 3.38305 13.8853 1.67702C17.2012 2.29017 20.0224 4.45544 21.4723 7.50002H16.8853ZM10.122 1.677C8.71738 3.38288 7.69123 5.36769 7.11147 7.5H2.52747C3.97881 4.45353 6.80321 2.28795 10.122 1.677ZM2.52747 16.5H7.11447C7.69359 18.632 8.71868 20.6167 10.122 22.323C6.80311 21.7123 3.97861 19.5466 2.52747 16.5ZM13.878 22.3215C15.2835 20.6168 16.3097 18.6323 16.8885 16.5H21.4725C20.0215 19.5465 17.1968 21.7118 13.878 22.3215Z" fill="#0D1E3A"/>
</svg>
