<svg width="24" height="24" viewBox="0 0 24 24" fill="none" xmlns="http://www.w3.org/2000/svg">
<path d="M7.5 11.9892C8.32843 11.9892 9 11.3182 9 10.4905C9 9.66282 8.32843 8.99185 7.5 8.99185C6.67157 8.99185 6 9.66282 6 10.4905C6 11.3182 6.67157 11.9892 7.5 11.9892Z" fill="#0D1E3A"/>
<path d="M13.5 10.4905C13.5 11.3182 12.8284 11.9892 12 11.9892C11.1716 11.9892 10.5 11.3182 10.5 10.4905C10.5 9.66282 11.1716 8.99185 12 8.99185C12.8284 8.99185 13.5 9.66282 13.5 10.4905Z" fill="#0D1E3A"/>
<path d="M16.5 11.9892C17.3284 11.9892 18 11.3182 18 10.4905C18 9.66282 17.3284 8.99185 16.5 8.99185C15.6716 8.99185 15 9.66282 15 10.4905C15 11.3182 15.6716 11.9892 16.5 11.9892Z" fill="#0D1E3A"/>
<path fill-rule="evenodd" clip-rule="evenodd" d="M24 10.4907C24 4.69681 18.627 0 12 0C5.373 0 0 4.69681 0 10.4907C0 16.2845 5.373 20.9813 12 20.9813C12.5233 20.9815 13.0461 20.952 13.566 20.8929C15.3329 23.0246 18.0206 24.1737 20.784 23.9786C19.8692 22.4054 19.3629 20.6285 19.311 18.8097C22.1721 16.9984 23.9331 13.8741 24 10.4907ZM18.4725 17.5688L17.781 18.0349L17.811 18.8667C17.8499 20.007 18.0411 21.137 18.3795 22.2267C16.9415 21.9287 15.6553 21.1324 14.748 19.9787L14.232 19.3193L13.398 19.4122C12.9337 19.4616 12.4669 19.4851 12 19.4826C6.21 19.4826 1.5 15.4497 1.5 10.4906C1.5 5.53155 6.21 1.49864 12 1.49864C17.79 1.49864 22.5 5.53155 22.5 10.4906C22.4384 13.3777 20.924 16.0392 18.4725 17.5688Z" fill="#0D1E3A"/>
</svg>
