<svg width="24" height="24" viewBox="0 0 24 24" fill="none" xmlns="http://www.w3.org/2000/svg">
<path fill-rule="evenodd" clip-rule="evenodd" d="M22.3665 8.649L19.9815 7.7565L19.6095 9.1995L20.2215 9.429L12.5805 13.35C12.2041 13.4873 11.7913 13.4873 11.415 13.35L3.77846 9.4275L4.39046 9.198L4.01696 7.755L1.63046 8.655C0.790463 8.97 0.730463 9.555 1.50446 9.951L10.593 14.616C11.4875 15.015 12.5094 15.015 13.404 14.616L22.5 9.9435C23.2665 9.546 23.2125 8.964 22.3665 8.649ZM22.3665 13.149L19.9815 12.2565L19.6095 13.6995L20.2215 13.929L12.5805 17.85C12.2041 17.9873 11.7913 17.9873 11.415 17.85L3.77846 13.9275L4.39046 13.698L4.01696 12.255L1.63046 13.155C0.790463 13.47 0.730463 14.055 1.50446 14.451L10.5915 19.1235C11.486 19.5225 12.5079 19.5225 13.4025 19.1235L22.5 14.4435C23.2665 14.046 23.2125 13.464 22.3665 13.149ZM22.3665 17.649L19.9815 16.7565L19.6095 18.1995L20.2215 18.429L12.5805 22.35C12.2041 22.4873 11.7913 22.4873 11.415 22.35L3.77846 18.4275L4.39046 18.198L4.01846 16.755L1.63196 17.655C0.791963 17.97 0.731963 18.555 1.50596 18.951L10.593 23.6235C11.4875 24.0225 12.5094 24.0225 13.404 23.6235L22.5 18.9435C23.2665 18.546 23.2125 17.964 22.3665 17.649ZM1.49996 5.2635L10.593 10.2645C11.4814 10.691 12.5155 10.691 13.404 10.2645L22.5 5.2635C23.274 4.8375 23.22 4.2135 22.374 3.876L13.53 0.339002C12.5369 0.00137933 11.4601 0.00137933 10.467 0.339002L1.63196 3.8775C0.791963 4.2135 0.730463 4.8375 1.49996 5.2635ZM11.1 1.776C11.3903 1.6816 11.6949 1.63895 12 1.65C12.3053 1.64047 12.6099 1.68464 12.9 1.7805L20.229 4.716L12.588 8.916C12.2134 9.06293 11.7971 9.06293 11.4225 8.916L3.78596 4.716L11.1 1.776Z" fill="#0D1E3A"/>
</svg>
